<?xml version="1.0" standalone="no"?>
<!DOCTYPE svg PUBLIC "-//W3C//DTD SVG 20010904//EN"
 "http://www.w3.org/TR/2001/REC-SVG-20010904/DTD/svg10.dtd">
<svg version="1.0" xmlns="http://www.w3.org/2000/svg"
 width="600.000000pt" height="600.000000pt" viewBox="0 0 600.000000 600.000000"
 preserveAspectRatio="xMidYMid meet">

<g transform="translate(0.000000,600.000000) scale(0.100000,-0.100000)"
fill="#ffffff" stroke="none">
<path d="M903 5975 c264 -92 585 -310 773 -523 70 -80 167 -214 217 -302 36
-63 108 -252 144 -380 l36 -125 5 -250 c2 -167 0 -275 -8 -324 -17 -105 -82
-287 -147 -413 l-56 -108 -131 0 c-374 1 -600 47 -850 172 -179 90 -317 189
-501 358 -108 100 -139 120 -156 103 -22 -22 5 -60 125 -178 191 -189 358
-305 571 -397 228 -98 408 -132 698 -133 103 0 187 -3 187 -7 0 -3 -31 -46
-68 -95 -269 -346 -702 -565 -1165 -589 -139 -7 -390 8 -496 31 -40 8 -74 15
-77 15 -3 0 -4 -23 -2 -52 l3 -52 60 -13 c99 -20 365 -32 520 -22 283 18 590
125 851 297 161 106 363 320 488 515 109 172 212 424 243 591 25 132 24 478 0
601 -58 287 -188 566 -365 786 -111 138 -320 319 -466 405 -63 37 -80 54 -53
54 6 0 50 4 97 10 47 5 173 14 280 20 370 21 312 27 -260 28 l-565 1 68 -24z"/>
<path d="M0 5960 c0 -13 5 -18 15 -14 19 8 19 20 0 28 -10 4 -15 -1 -15 -14z"/>
<path d="M1437 5176 c-122 -51 -251 -146 -228 -169 9 -9 23 -6 59 16 100 59
190 97 251 106 69 11 86 24 70 53 -14 26 -81 23 -152 -6z"/>
<path d="M3630 5023 c0 -11 58 -67 138 -134 75 -64 233 -198 351 -298 118
-100 267 -220 330 -268 64 -47 150 -112 191 -143 95 -72 100 -74 100 -57 0 22
-452 439 -695 642 -126 105 -310 247 -342 264 -34 17 -73 14 -73 -6z"/>
<path d="M1498 4769 c-46 -49 -101 -154 -122 -236 -37 -144 -3 -253 80 -253
75 0 145 58 193 160 23 48 26 68 26 155 0 84 -3 107 -22 142 -45 84 -96 94
-155 32z"/>
<path d="M5769 4506 c-74 -51 -114 -140 -189 -421 -17 -66 -69 -250 -115 -410
-107 -373 -155 -546 -314 -1120 -190 -689 -231 -827 -348 -1175 -116 -347
-130 -413 -94 -447 36 -33 136 -44 199 -22 39 13 48 34 174 403 133 389 164
486 402 1246 113 360 243 777 289 925 47 149 96 313 111 365 70 262 109 433
113 507 5 72 3 85 -16 117 -13 20 -23 36 -24 36 -1 0 -16 4 -33 9 -53 15 -59
-1 -19 -48 19 -24 38 -54 41 -67 16 -63 -48 -324 -184 -754 -110 -346 -305
-968 -432 -1380 -128 -413 -145 -466 -247 -770 -119 -351 -149 -443 -163 -499
l-11 -44 -56 6 c-70 7 -103 28 -103 65 0 16 50 174 110 353 140 409 145 426
411 1384 55 198 158 563 229 811 71 248 142 507 159 575 44 187 65 235 129
297 33 33 52 58 48 67 -8 21 -26 19 -67 -9z"/>
<path d="M2873 3443 c-21 -8 -15 -23 15 -34 201 -77 1714 -471 1734 -451 11
11 13 11 -297 110 -465 150 -1109 325 -1350 367 -48 8 -88 15 -89 14 0 0 -7
-3 -13 -6z"/>
<path d="M1865 2378 c-79 -28 -71 -48 19 -48 62 0 82 -4 129 -30 66 -35 73
-36 82 -12 9 24 -47 69 -109 87 -57 17 -79 18 -121 3z"/>
<path d="M1910 2106 c-133 -46 -568 -240 -792 -352 -221 -110 -500 -224 -549
-224 -21 0 -294 153 -468 261 -51 33 -95 59 -97 59 -2 0 -4 -22 -4 -49 l0 -50
132 -79 c185 -111 348 -200 379 -207 59 -14 274 66 629 235 195 92 370 171
615 275 61 26 124 55 140 64 17 10 42 21 57 24 26 7 27 5 43 -66 42 -188 102
-318 157 -336 47 -15 89 -1 112 38 17 29 18 40 8 99 -14 85 -77 213 -138 281
-45 50 -47 51 -102 50 -32 0 -86 -10 -122 -23z m199 -86 c49 -76 99 -195 108
-256 6 -44 5 -46 -18 -42 -18 2 -32 19 -55 62 -30 56 -85 207 -98 269 -11 48
22 31 63 -33z"/>
<path d="M3785 1850 c-544 -27 -1071 -63 -1082 -73 -3 -4 0 -13 7 -22 17 -21
143 -20 559 5 185 11 486 27 670 34 324 14 370 21 344 47 -14 14 -290 19 -498
9z"/>
<path d="M0 1447 l0 -67 119 -133 c174 -193 174 -193 214 -179 35 13 99 21
342 47 191 21 742 95 1039 140 127 19 293 42 370 51 134 16 140 16 153 -2 7
-10 13 -30 13 -45 0 -42 47 -183 71 -213 52 -66 133 -68 160 -3 18 41 18 219
1 269 -18 51 -95 132 -119 125 -10 -3 -37 -12 -59 -21 -23 -8 -97 -22 -165
-31 -68 -9 -216 -29 -329 -46 -526 -77 -768 -112 -800 -116 -19 -2 -154 -20
-300 -39 -146 -20 -292 -38 -325 -41 l-61 -5 -39 48 c-43 53 -236 277 -266
309 -19 19 -19 18 -19 -48z m2396 -141 c42 -93 52 -222 17 -233 -27 -9 -103
177 -103 251 0 75 48 64 86 -18z"/>
<path d="M1220 901 c-58 -3 -115 -12 -127 -18 -12 -7 -37 -32 -57 -55 -33 -38
-36 -47 -36 -103 l0 -62 -65 -6 c-133 -13 -149 -40 -143 -237 3 -70 10 -135
17 -147 19 -36 59 -49 166 -53 55 -1 165 -6 244 -9 l144 -6 2 -100 2 -100 36
-3 35 -3 -1 48 c0 26 1 74 1 106 l2 57 2280 0 2280 0 0 36 0 36 -2564 -4
-2564 -3 -6 50 c-3 28 -6 99 -6 158 l0 109 2570 -4 2570 -3 0 38 0 37 -2470 0
-2470 0 0 46 c0 57 21 103 57 127 27 17 120 18 1753 20 949 1 1733 6 1743 11
9 4 17 14 17 20 0 10 -57 14 -227 19 -269 8 -3031 6 -3183 -2z"/>
<path d="M4659 894 c-21 -26 13 -194 40 -194 26 0 42 94 26 148 -18 60 -41 76
-66 46z"/>
</g>
</svg>
