<?xml version="1.0" standalone="no"?>
<!DOCTYPE svg PUBLIC "-//W3C//DTD SVG 20010904//EN"
 "http://www.w3.org/TR/2001/REC-SVG-20010904/DTD/svg10.dtd">
<svg version="1.0" xmlns="http://www.w3.org/2000/svg"
 width="600.000000pt" height="600.000000pt" viewBox="0 0 600.000000 600.000000"
 preserveAspectRatio="xMidYMid meet">

<g transform="translate(0.000000,600.000000) scale(0.100000,-0.100000)"
fill="#000000" stroke="none">
<path d="M3100 5848 c-77 -28 -103 -32 -280 -43 l-195 -12 -232 -78 c-137 -46
-257 -92 -294 -114 -145 -85 -282 -246 -380 -446 -88 -178 -110 -276 -116
-500 -6 -241 16 -346 108 -503 45 -76 226 -257 317 -317 418 -273 928 -319
1349 -120 359 169 610 511 652 888 22 190 -35 430 -147 619 -89 152 -251 312
-402 399 -33 19 -60 38 -60 43 0 5 61 7 145 3 119 -5 145 -3 145 8 0 8 -6 17
-12 22 -7 4 -101 11 -208 14 -187 5 -199 7 -290 38 -149 52 -140 47 -105 61
17 6 69 22 118 34 48 13 90 26 94 29 3 4 -23 7 -58 7 -47 0 -87 -9 -149 -32z
m-254 -111 c-168 -107 -277 -191 -297 -229 -20 -38 1 -30 63 24 72 62 152 118
251 173 64 35 73 37 125 32 76 -9 195 -40 199 -52 2 -5 -24 -18 -57 -28 -152
-44 -366 -156 -436 -228 -56 -57 -25 -54 62 7 128 90 346 183 486 208 91 16
380 -191 515 -368 66 -87 147 -263 179 -385 24 -96 26 -115 22 -260 -5 -177
-23 -245 -101 -396 -143 -274 -367 -450 -692 -542 -78 -22 -115 -26 -280 -30
-151 -4 -209 -2 -280 12 -374 69 -732 309 -868 581 -64 127 -72 171 -71 394 0
175 3 216 21 280 62 223 145 372 288 515 83 84 115 108 185 143 98 49 172 69
281 78 42 4 83 10 89 14 19 12 2 30 -28 31 -22 1 -19 3 13 11 76 18 150 26
250 26 81 1 96 -1 81 -11z"/>
<path d="M3095 4983 c-55 -10 -65 -14 -65 -23 0 -6 24 -10 54 -10 44 0 71 -8
142 -44 49 -25 90 -43 92 -41 2 2 -6 18 -19 36 -33 47 -147 93 -204 82z"/>
<path d="M2295 4870 c-61 -20 -136 -72 -123 -86 5 -4 29 4 55 18 61 33 145 58
197 58 28 1 36 3 26 9 -34 19 -96 19 -155 1z"/>
<path d="M3092 4699 c-132 -66 -128 -260 6 -259 110 1 211 135 167 220 -31 59
-100 75 -173 39z"/>
<path d="M2332 4650 c-97 -44 -88 -166 17 -220 38 -19 87 -4 136 44 40 38 45
47 45 88 0 33 -6 50 -22 66 -49 45 -108 53 -176 22z"/>
<path d="M2200 4136 c0 -28 59 -85 119 -115 97 -50 175 -63 396 -68 248 -6
316 5 442 67 83 41 133 86 133 121 0 32 -35 22 -56 -16 -18 -32 -71 -63 -158
-91 -69 -23 -104 -27 -243 -32 -279 -8 -436 23 -551 110 -35 26 -67 48 -73 48
-5 0 -9 -11 -9 -24z"/>
<path d="M2734 3528 c-8 -27 3 -505 17 -681 10 -135 21 -183 40 -171 9 5 10
61 4 213 -4 113 -9 235 -10 271 -10 279 -19 390 -31 390 -7 0 -16 -10 -20 -22z"/>
<path d="M2225 3376 c-176 -89 -331 -166 -344 -171 -14 -6 -27 -16 -29 -24 -8
-24 57 -7 164 44 144 69 516 265 537 283 20 18 22 32 5 31 -7 0 -157 -73 -333
-163z"/>
<path d="M2920 3478 c0 -7 4 -18 8 -24 13 -21 141 -113 225 -162 139 -82 187
-107 335 -172 78 -34 173 -82 210 -106 71 -46 116 -57 110 -27 -5 26 -139 117
-231 156 -246 106 -320 144 -508 266 -123 81 -149 92 -149 69z"/>
<path d="M1490 3261 c17 -33 43 -48 450 -264 41 -21 80 -43 85 -47 14 -12 454
-229 557 -276 48 -21 84 -40 79 -42 -10 -3 -244 68 -456 139 -152 51 -564 212
-687 268 -37 17 -74 31 -83 31 -12 0 -15 17 -15 96 0 72 -3 95 -12 92 -9 -3
-14 -31 -16 -81 -2 -42 -6 -77 -11 -77 -30 0 -186 48 -233 71 -54 27 -118 39
-118 22 0 -5 7 -46 15 -92 8 -47 12 -87 10 -90 -8 -7 -102 24 -283 95 -90 35
-172 64 -183 64 -12 0 -21 -10 -26 -27 -14 -59 71 -691 97 -717 7 -7 14 -6 22
2 8 8 0 92 -37 347 -27 184 -46 338 -42 341 3 4 70 -21 149 -54 225 -95 357
-134 963 -286 479 -120 947 -262 1020 -310 50 -33 50 -37 50 -973 0 -479 3
-875 8 -879 4 -4 9 -5 11 -3 2 2 9 186 15 409 14 453 17 1138 6 1275 l-7 90
118 0 c106 1 125 3 174 26 31 14 63 33 71 42 22 22 294 96 634 172 160 36 414
97 565 136 642 166 1129 283 1138 275 7 -7 -11 -93 -88 -421 -32 -137 -64
-279 -70 -315 -17 -93 -17 -92 -38 -81 -33 17 -88 -6 -150 -64 -118 -109 -184
-309 -138 -418 21 -50 70 -87 117 -87 25 0 42 -5 45 -14 6 -15 -23 -129 -81
-316 -37 -123 -48 -212 -19 -175 19 25 77 205 119 370 l33 130 55 32 c198 117
255 340 126 486 -21 25 -39 53 -39 62 0 9 31 154 70 323 76 336 116 539 108
548 -3 2 -16 0 -29 -5 -13 -6 -125 -33 -249 -62 -124 -28 -445 -107 -715 -174
-420 -106 -784 -193 -875 -210 -22 -4 -23 -3 -5 5 29 14 866 251 1115 316 91
24 153 47 298 110 32 14 33 14 53 -21 12 -19 25 -32 30 -29 14 8 11 58 -4 78
-13 18 -16 18 -70 2 -31 -9 -75 -25 -99 -35 -24 -10 -57 -21 -74 -25 l-30 -7
4 71 c2 38 2 70 -2 70 -3 0 -47 -13 -98 -29 -51 -16 -109 -32 -128 -36 -47 -9
-202 -59 -440 -140 -107 -37 -352 -120 -545 -185 -431 -145 -600 -207 -616
-226 -9 -11 -8 -14 5 -14 10 0 283 90 608 200 325 110 597 200 605 200 8 0 27
6 41 14 26 14 131 49 242 80 30 8 102 30 160 48 58 18 110 32 115 33 6 0 13
-20 16 -43 5 -38 3 -45 -15 -52 -12 -4 -131 -38 -266 -75 -330 -91 -617 -172
-1095 -310 -220 -63 -427 -118 -460 -121 -64 -6 -74 -2 -166 60 -24 17 -156
82 -294 146 -137 65 -322 154 -410 200 -88 46 -212 110 -275 143 -206 106
-345 180 -365 194 -11 7 -28 13 -38 13 -14 0 -16 -4 -7 -19z m-242 -176 c63
-3 71 -6 252 -87 172 -78 409 -174 630 -254 80 -29 140 -53 135 -54 -6 0 -66
15 -135 34 -69 19 -332 87 -585 151 -253 64 -462 118 -465 120 -3 2 -4 39 -2
83 l3 80 60 -35 c41 -25 73 -36 107 -38z m1500 -536 l267 -81 100 25 c55 14
101 24 103 22 2 -2 -16 -14 -40 -28 -128 -74 -301 -89 -363 -31 -14 13 -23 28
-20 34 8 13 -21 27 -185 86 -80 29 -141 53 -137 54 4 0 128 -36 275 -81z
m2634 -415 c45 -43 68 -99 68 -172 0 -78 -23 -126 -95 -198 -54 -54 -98 -74
-167 -74 -48 0 -103 47 -119 100 -22 71 20 218 87 305 58 76 166 95 226 39z"/>
<path d="M4625 3251 c-11 -5 -54 -22 -95 -39 -41 -17 -111 -45 -155 -62 -199
-79 -277 -110 -375 -152 -58 -25 -267 -111 -465 -191 -198 -80 -386 -157 -418
-171 -86 -38 -62 -51 31 -17 119 45 725 287 787 316 31 14 59 25 64 25 4 0 50
18 102 41 148 64 300 125 344 139 22 7 71 28 109 46 37 19 72 34 77 34 5 0 23
-16 40 -35 17 -19 36 -35 41 -35 14 0 1 48 -23 82 -21 29 -31 32 -64 19z"/>
<path d="M556 2387 c-32 -18 -43 -33 -62 -86 -74 -198 29 -436 187 -434 97 1
160 83 167 218 5 99 -11 138 -85 205 -53 48 -150 120 -161 120 -4 0 -24 -10
-46 -23z m57 -47 c58 -27 142 -102 172 -154 61 -104 5 -276 -90 -276 -68 0
-121 45 -164 140 -37 81 -25 241 20 297 14 16 11 17 62 -7z"/>
<path d="M3176 2391 c-3 -4 -12 -95 -21 -202 -8 -107 -31 -366 -50 -575 -28
-303 -36 -437 -38 -645 -2 -253 -1 -267 22 -336 27 -83 42 -95 30 -26 -13 81
-10 477 6 683 8 107 26 321 40 475 31 338 43 635 27 635 -6 0 -13 -4 -16 -9z"/>
<path d="M721 1843 c-8 -16 -6 -50 9 -139 10 -66 33 -229 50 -363 36 -295 42
-310 120 -327 30 -7 125 -40 210 -74 296 -118 696 -268 820 -308 145 -47 524
-143 655 -166 147 -26 146 -26 140 -16 -16 26 -117 61 -300 105 -350 83 -535
142 -990 315 -387 147 -485 180 -532 180 -52 0 -46 -21 -73 270 -19 209 -65
485 -88 526 -9 16 -11 15 -21 -3z"/>
<path d="M5005 1093 c-68 -14 -198 -59 -485 -165 -576 -214 -825 -292 -1160
-363 -69 -15 -131 -32 -138 -38 -33 -27 18 -25 179 8 304 60 532 132 1159 365
420 155 514 191 519 196 5 5 -47 3 -74 -3z"/>
<path d="M3127 496 c-30 -45 -91 -78 -145 -79 -61 -1 -136 20 -158 44 -23 25
-54 25 -54 0 0 -25 49 -66 96 -81 22 -8 65 -10 105 -8 79 6 134 37 164 92 23
42 16 69 -8 32z"/>
</g>
</svg>
