<?xml version="1.0" encoding="UTF-8" standalone="no"?>
<!-- Created with Inkscape (http://www.inkscape.org/) -->

<svg
   xmlns:dc="http://purl.org/dc/elements/1.1/"
   xmlns:cc="http://creativecommons.org/ns#"
   xmlns:rdf="http://www.w3.org/1999/02/22-rdf-syntax-ns#"
   xmlns:svg="http://www.w3.org/2000/svg"
   xmlns="http://www.w3.org/2000/svg"
   xmlns:sodipodi="http://sodipodi.sourceforge.net/DTD/sodipodi-0.dtd"
   xmlns:inkscape="http://www.inkscape.org/namespaces/inkscape"
   width="107.968mm"
   height="84.551003mm"
   viewBox="0 0 107.968 84.551005"
   version="1.1"
   id="svg6860"
   inkscape:version="0.92.3 (2405546, 2018-03-11)"
   sodipodi:docname="stairs_icon.svg">
  <defs
     id="defs6854" />
  <sodipodi:namedview
     id="base"
     pagecolor="#ffffff"
     bordercolor="#666666"
     borderopacity="1.0"
     inkscape:pageopacity="0.0"
     inkscape:pageshadow="2"
     inkscape:zoom="1.4"
     inkscape:cx="-200.53"
     inkscape:cy="213.0891"
     inkscape:document-units="mm"
     inkscape:current-layer="layer1"
     showgrid="false"
     inkscape:window-width="1366"
     inkscape:window-height="705"
     inkscape:window-x="-8"
     inkscape:window-y="-8"
     inkscape:window-maximized="1" />
  <metadata
     id="metadata6857">
    <rdf:RDF>
      <cc:Work
         rdf:about="">
        <dc:format>image/svg+xml</dc:format>
        <dc:type
           rdf:resource="http://purl.org/dc/dcmitype/StillImage" />
        <dc:title></dc:title>
      </cc:Work>
    </rdf:RDF>
  </metadata>
  <g
     inkscape:label="Calque 1"
     inkscape:groupmode="layer"
     id="layer1"
     transform="translate(0,-212.44904)">
    <ellipse
       cx="13.949322"
       cy="220.92548"
       rx="6.763"
       ry="7.098"
       id="ellipse935"
       style="fill:#000000;stroke:#000000;stroke-width:0.25799999;stroke-opacity:1" />
    <path
       d="m 10.756612,230.40201 c 0.38081,-0.30592 0.830034,-0.53635 1.318033,-0.67612 0.741001,-0.2252 1.837383,-0.37341 2.923161,-0.12659 1.086782,0.24792 2.127149,0.86856 2.808959,1.58077 0.67969,0.71101 0.997695,1.54144 1.536476,6.01167 0.539899,4.47033 1.307931,12.59519 1.517794,17.3144 0.209864,4.71921 -0.138333,6.03178 -0.562954,6.9114 -0.425734,0.87951 -0.928004,1.32706 -2.58219,1.41434 -1.655302,0.0872 -4.459173,-0.1856 -5.909906,-1.3565 -1.449618,-1.1708 -1.543977,-3.23851 -1.8068575,-7.14538 -0.263995,-3.90698 -0.697513,-9.65421 -0.631106,-13.92361 0.06529,-4.26949 0.63062,-7.06213 0.9137865,-8.4579 0.280933,-1.39597 0.280933,-1.39597 0.474804,-1.54648 z"
       id="path937"
       inkscape:connector-curvature="0"
       style="fill:#000000;stroke:#000000;stroke-width:0.28062889;stroke-opacity:1"
       sodipodi:nodetypes="cccccsccccccc" />
    <path
       style="fill:#000000;stroke:#000000;stroke-width:0.28395313px;stroke-linecap:butt;stroke-linejoin:miter;stroke-opacity:1"
       d="m 0.61771145,278.96721 21.81282855,-0.20746 0.594897,-13.06948 22.011127,0.20745 0.396597,-16.80363 24.192408,0.20745 -0.396598,-18.46324 H 84.69625 l 0.1983,-18.04835 23.62823,0.17052 -0.6256,84.05508 H 0.22111455 Z"
       id="path7448"
       inkscape:connector-curvature="0"
       sodipodi:nodetypes="ccccccccccccc" />
    <path
       d="m 10.726656,255.90201 c 0.156119,-0.24945 0.346897,-0.448 0.559744,-0.58256 0.32254,-0.21385 0.809142,-0.39452 1.310983,-0.28465 0.502347,0.11061 1.002664,0.49776 1.34603,0.97561 0.342348,0.47711 0.527745,1.06557 0.997077,4.31021 0.469842,3.24465 1.227682,9.1558 1.561396,12.60471 0.333715,3.44891 0.243302,4.43484 0.0965,5.1081 -0.1473,0.67327 -0.350984,1.0346 -1.092061,1.20716 -0.741581,0.17255 -2.01904,0.15633 -2.732183,-0.60764 -0.712635,-0.76396 -0.859935,-2.27494 -1.176379,-5.12432 -0.316952,-2.84939 -0.803554,-7.03793 -0.989967,-10.17491 -0.18692,-3.13698 -0.07365,-5.22314 -0.01676,-6.26585 0.05587,-1.04271 0.05587,-1.04271 0.13562,-1.16586 z"
       id="path937-0"
       inkscape:connector-curvature="0"
       style="fill:#000000;stroke:#000000;stroke-width:0.16218381;stroke-opacity:1"
       sodipodi:nodetypes="cccccsccccccc" />
    <path
       d="m 17.65161,256.91878 c 0.156424,-0.22674 0.342535,-0.40282 0.546054,-0.51665 0.308876,-0.18192 0.768135,-0.32148 1.227735,-0.18395 0.460034,0.13827 0.905079,0.5392 1.200455,1.01594 0.294469,0.47599 0.43829,1.04742 0.719182,4.16169 0.281366,3.11429 0.703077,8.7815 0.848677,12.08092 0.1456,3.29943 0.01512,4.23035 -0.152758,4.86044 -0.168345,0.63006 -0.374126,0.95998 -1.068697,1.07504 -0.695037,0.11502 -1.877458,0.0153 -2.501762,-0.75777 -0.623833,-0.77301 -0.68864,-2.21857 -0.846663,-4.94714 -0.158494,-2.72861 -0.410639,-6.74097 -0.434594,-9.73425 -0.02442,-2.99331 0.179373,-4.96825 0.281497,-5.95535 0.101176,-0.98717 0.101176,-0.98717 0.180876,-1.09892 z"
       id="path937-0-4"
       inkscape:connector-curvature="0"
       style="fill:#000000;stroke:#000000;stroke-width:0.15242468;stroke-opacity:1"
       sodipodi:nodetypes="cccccsccccccc" />
    <path
       d="m 14.517828,231.82672 c 0.0362,-0.24319 0.119692,-0.46537 0.244958,-0.65191 0.186154,-0.28969 0.519427,-0.62655 0.972542,-0.76497 0.453801,-0.13812 1.008075,-0.0802 1.466829,0.10917 0.457645,0.18933 0.827399,0.52477 2.41163,2.61221 1.584652,2.08722 4.390933,5.93198 5.939129,8.22191 1.548197,2.28993 1.838031,3.02449 1.966029,3.56271 0.127586,0.53844 0.09362,0.88104 -0.451844,1.32169 -0.545873,0.44086 -1.601982,0.97912 -2.470386,0.74694 -0.867984,-0.2324 -1.547157,-1.23514 -2.859718,-3.10948 -1.312981,-1.87413 -3.260042,-4.62014 -4.571938,-6.75336 -1.312313,-2.133 -1.989737,-3.65372 -2.328097,-4.41393 -0.339202,-0.75977 -0.339202,-0.75977 -0.319134,-0.88098 z"
       id="path937-0-4-9"
       inkscape:connector-curvature="0"
       style="fill:#000000;stroke:#000000;stroke-width:0.13941765;stroke-opacity:1"
       sodipodi:nodetypes="cccccsccccccc" />
    <path
       d="m 10.756611,230.40201 c 0.241248,-0.0474 0.478567,-0.0433 0.696311,0.0122 0.335333,0.0782 0.764451,0.27925 1.046799,0.65971 0.282297,0.38121 0.41363,0.92281 0.389019,1.41851 -0.02491,0.49464 -0.216931,0.95547 -1.652271,3.14795 -1.4349925,2.19281 -4.1161197,6.12587 -5.7543047,8.35231 -1.638187,2.22644 -2.233034,2.74582 -2.69717,3.04688 -0.464477,0.30076 -0.798634,0.38364 -1.396677,0.0175 -0.59838605,-0.36643 -1.45962095,-1.1809 -1.53208695,-2.07688 -0.07212,-0.89566 0.644824,-1.87176 1.97049795,-3.73684 1.325332,-1.86541 3.259449,-4.62056 4.829238,-6.57183 1.569443,-1.95159 2.7749542,-3.09973 3.3776877,-3.67342 0.602037,-0.57434 0.602037,-0.57434 0.722958,-0.59608 z"
       id="path937-0-4-9-1"
       inkscape:connector-curvature="0"
       style="fill:#000000;stroke:#000000;stroke-width:0.13941765;stroke-opacity:1"
       sodipodi:nodetypes="cccccsccccccc" />
  </g>
</svg>
