<?xml version="1.0" standalone="no"?>
<!DOCTYPE svg PUBLIC "-//W3C//DTD SVG 20010904//EN"
 "http://www.w3.org/TR/2001/REC-SVG-20010904/DTD/svg10.dtd">
<svg version="1.0" xmlns="http://www.w3.org/2000/svg"
 width="600.000000pt" height="600.000000pt" viewBox="0 0 600.000000 600.000000"
 preserveAspectRatio="xMidYMid meet">

<g transform="translate(0.000000,600.000000) scale(0.100000,-0.100000)"
fill="#ffffff" stroke="none">
<path d="M1401 4896 c-9 -10 -1 -21 35 -51 41 -34 84 -88 84 -107 0 -4 -21
-10 -47 -13 -90 -13 -190 -70 -278 -159 -85 -85 -116 -136 -140 -226 -63 -238
101 -547 359 -677 33 -17 55 -32 50 -35 -5 -3 -56 -25 -114 -48 -213 -87 -378
-208 -434 -318 -15 -29 -71 -189 -126 -355 -55 -166 -104 -311 -109 -322 -6
-11 -13 -36 -16 -55 -15 -81 -38 -168 -54 -205 -29 -64 -34 -110 -16 -129 34
-33 80 -6 115 65 l26 54 46 -3 c41 -3 49 0 64 23 34 52 3 170 -66 249 l-31 35
101 303 c56 167 110 317 120 333 68 111 277 241 506 315 116 38 186 41 220 9
12 -11 43 -63 69 -115 76 -154 115 -297 115 -429 0 -82 8 -104 38 -112 19 -4
30 0 44 17 16 19 17 34 12 104 -13 179 -57 329 -140 485 -47 89 -47 101 6 101
31 0 404 -186 520 -260 68 -43 266 -194 290 -220 3 -3 86 -73 185 -155 202
-169 224 -187 275 -232 l36 -32 -8 -63 c-5 -35 -14 -93 -20 -130 -12 -75 0
-123 34 -133 27 -9 64 19 79 60 7 19 17 35 22 35 5 0 28 -15 51 -34 76 -63
135 -72 185 -30 35 29 41 75 16 123 -26 52 -113 117 -214 162 -55 25 -119 62
-150 88 -29 25 -84 71 -121 101 -37 30 -136 113 -221 184 -85 70 -172 143
-194 161 -22 18 -61 50 -88 72 -44 36 -135 94 -250 158 -79 43 -281 145 -289
145 -4 0 -21 8 -38 19 l-31 19 68 45 c38 25 75 57 83 71 7 15 16 26 20 26 7 0
63 87 90 140 27 51 60 196 60 262 0 50 4 71 18 84 11 11 17 33 17 60 0 47 -18
68 -65 79 -17 4 -36 24 -59 61 -39 66 -139 175 -195 214 -73 49 -154 72 -237
67 -41 -2 -85 -8 -98 -12 -22 -7 -23 -7 -11 16 7 13 26 36 43 51 18 14 29 30
24 34 -13 13 -54 -17 -77 -59 -22 -39 -24 -40 -32 -17 -5 12 -6 31 -3 41 3 11
8 28 11 39 10 37 -24 22 -36 -15 l-12 -36 -26 27 c-51 50 -78 65 -91 50z m470
-195 c91 -45 201 -160 251 -261 70 -141 82 -233 48 -363 -49 -186 -177 -333
-352 -405 -89 -36 -223 -36 -320 1 -147 56 -273 170 -347 312 -29 55 -44 104
-20 62 17 -29 73 -49 104 -37 38 14 30 30 -14 30 -46 0 -71 26 -71 72 0 22 8
32 40 48 46 24 54 45 13 36 -37 -9 -83 -60 -84 -94 -1 -27 -1 -26 -16 8 -11
25 -14 61 -11 135 3 92 6 107 37 168 42 82 138 177 231 227 60 32 72 35 151
35 57 0 91 -4 102 -13 9 -8 21 -11 27 -7 17 11 11 34 -12 46 l-23 12 30 14
c18 8 57 12 100 10 56 -2 83 -9 136 -36z m369 -355 c0 -6 -4 -17 -9 -24 -6
-10 -11 -5 -20 19 -18 51 -14 68 9 40 11 -13 20 -28 20 -35z m1057 -1669 c134
-68 204 -143 189 -202 -13 -53 -86 -41 -165 27 -58 50 -79 47 -110 -14 -25
-51 -47 -61 -59 -27 -6 15 18 249 27 266 2 4 49 -16 118 -50z m-2524 -144 c46
-67 73 -172 47 -188 -5 -3 -18 -1 -29 5 -34 18 -70 -8 -100 -70 -21 -44 -32
-56 -54 -58 -39 -5 -38 14 9 123 7 17 23 74 36 128 20 85 25 97 44 97 13 0 31
-14 47 -37z"/>
<path d="M1951 4226 c-8 -9 -10 -32 -5 -65 6 -45 9 -51 30 -51 29 0 37 26 28
85 -7 47 -29 60 -53 31z"/>
<path d="M1682 4168 c-14 -19 -3 -128 14 -135 26 -10 44 17 44 67 0 27 -3 55
-6 64 -7 19 -38 21 -52 4z"/>
<path d="M2013 3951 c-45 -64 -94 -86 -188 -86 -55 1 -90 6 -111 18 -27 14
-34 14 -43 3 -41 -49 174 -77 264 -35 66 31 156 139 116 139 -5 0 -22 -18 -38
-39z"/>
<path d="M1867 2892 c-22 -26 -97 -145 -157 -252 -249 -444 -324 -689 -236
-775 6 -6 67 -40 136 -74 206 -105 366 -201 385 -231 7 -12 0 -14 -85 -28
-168 -27 -320 -56 -320 -61 1 -19 18 -30 40 -24 l25 7 -25 8 c-19 6 -16 7 13
3 21 -2 66 2 100 10 34 7 95 20 135 29 101 22 139 21 147 -4 18 -57 -135 -179
-256 -204 -29 -6 -46 -33 -30 -49 16 -16 97 2 159 34 66 35 167 130 178 168 4
14 7 38 6 53 0 18 4 25 13 22 7 -3 16 -1 20 5 3 6 18 11 33 11 19 0 23 3 13 9
-7 5 -27 5 -43 1 -17 -5 -26 -5 -23 1 4 5 -2 9 -12 9 -10 0 -42 23 -71 50 -61
57 -163 120 -352 214 -74 37 -143 76 -152 88 -65 76 61 396 334 846 37 61 68
118 68 126 0 22 -27 26 -43 8z"/>
<path d="M1965 2850 c-5 -8 1 -42 36 -205 29 -135 86 -319 119 -385 21 -41 91
-121 234 -270 168 -175 296 -318 304 -340 2 -5 -12 -11 -30 -14 -119 -17 -164
-27 -177 -42 -15 -15 -14 -16 14 -9 17 4 46 8 65 11 19 2 59 10 89 18 l55 14
27 -29 c49 -52 71 -112 63 -166 -10 -70 -31 -113 -76 -160 -42 -43 -46 -73 -9
-73 28 0 108 96 126 150 20 61 25 138 12 169 -6 14 -24 45 -39 68 -16 23 -24
44 -19 47 8 5 231 27 250 24 3 0 8 0 11 1 3 1 30 3 61 5 31 3 76 13 100 25
l44 20 -55 -5 c-96 -9 -293 -34 -364 -45 l-70 -12 -24 29 c-80 96 -291 326
-371 404 -93 92 -170 185 -187 226 -29 68 -83 266 -125 459 -6 28 -15 60 -20
73 -9 23 -33 30 -44 12z"/>
<path d="M3668 1753 c-32 -2 -58 -9 -58 -15 0 -5 7 -8 15 -4 8 3 138 6 288 6
150 1 280 6 288 11 13 8 -403 10 -533 2z"/>
<path d="M4230 1751 c0 -8 263 -17 377 -12 23 1 44 -3 48 -9 4 -6 63 -10 158
-9 84 1 188 -4 232 -11 191 -29 285 -51 346 -79 35 -16 85 -35 112 -41 46 -12
87 -47 87 -76 0 -28 -49 -63 -138 -98 -50 -20 -103 -36 -116 -36 -13 0 -29 -7
-36 -15 -14 -17 -35 -21 -25 -5 3 6 2 10 -4 10 -5 0 -13 -5 -16 -10 -12 -20
22 -20 86 0 114 36 105 20 -29 -48 -159 -81 -435 -169 -712 -226 -69 -14 -145
-30 -170 -36 -50 -11 -233 -42 -355 -60 -44 -6 -100 -15 -125 -20 -25 -5 -108
-16 -185 -25 -77 -9 -162 -20 -190 -25 -43 -6 -45 -8 -15 -9 45 -1 372 39 545
68 241 40 345 60 540 103 50 11 101 22 115 25 80 17 317 90 402 124 186 74
385 187 422 241 35 49 12 99 -62 137 -64 32 -236 81 -339 96 -54 8 -108 17
-121 20 -12 3 -134 12 -270 20 -281 17 -562 20 -562 6z"/>
<path d="M3409 1736 c-2 -3 -36 -6 -75 -9 -39 -2 -79 -10 -90 -16 -16 -10 -10
-11 31 -6 28 3 87 8 132 11 45 3 104 9 130 14 44 7 41 8 -38 9 -47 0 -88 -1
-90 -3z"/>
<path d="M2310 1594 c-58 -8 -116 -16 -129 -19 -22 -6 -23 -7 -5 -20 17 -13
46 -12 84 2 8 3 25 5 38 4 13 -2 29 3 37 9 8 6 19 9 24 6 10 -7 81 19 81 28 0
7 3 7 -130 -10z"/>
<path d="M1450 1450 c-19 -4 -72 -16 -117 -26 -46 -10 -83 -22 -83 -26 0 -13
68 -9 74 5 4 9 8 9 11 1 7 -14 43 -7 65 12 21 18 100 30 100 15 0 -16 35 -14
49 3 9 11 6 12 -15 8 -19 -3 -25 -1 -20 7 8 12 -10 13 -64 1z"/>
<path d="M1450 1420 c-9 -6 -10 -10 -3 -10 6 0 15 5 18 10 8 12 4 12 -15 0z"/>
<path d="M1140 1380 c-14 -4 -70 -20 -125 -35 -188 -51 -380 -135 -443 -195
-115 -108 31 -236 363 -319 124 -31 301 -51 518 -58 153 -5 197 -9 197 -19 0
-25 -52 -48 -154 -69 -90 -19 -101 -23 -104 -44 -5 -35 23 -48 133 -62 78 -9
121 -9 196 0 91 11 214 47 248 73 26 20 71 72 76 90 9 25 29 29 190 38 83 5
170 11 195 14 25 3 79 8 120 11 41 3 113 10 160 15 47 5 135 14 195 20 61 5
148 15 195 20 47 5 159 17 250 26 91 9 167 18 169 20 8 8 -92 4 -153 -5 -34
-6 -117 -15 -186 -21 -69 -6 -163 -15 -210 -20 -112 -13 -629 -58 -750 -65
-148 -9 -189 -15 -184 -28 8 -22 -35 -77 -83 -107 -68 -44 -78 -37 -33 23 22
28 40 57 40 64 0 7 15 16 33 21 21 6 -66 10 -256 11 -514 2 -829 45 -1035 143
-76 37 -85 48 -29 37 42 -9 122 -20 262 -39 98 -13 205 -13 205 0 0 6 -31 10
-74 10 -40 0 -98 5 -127 11 -30 6 -63 13 -74 14 -11 1 -27 5 -36 9 -9 4 -20 6
-25 5 -10 -3 -72 14 -143 37 -114 38 -137 75 -79 131 35 33 203 123 231 123 9
0 19 5 22 10 3 6 14 10 23 10 10 0 36 9 57 20 22 11 45 18 52 16 11 -5 46 4
93 21 8 4 26 8 40 10 14 2 34 7 45 12 11 5 31 13 45 19 l25 11 -25 0 c-14 -1
-36 -4 -50 -9z m795 -642 c-10 -35 -92 -103 -139 -116 -106 -30 -177 -37 -271
-27 -53 5 -118 27 -122 42 -4 10 10 14 107 29 64 10 75 12 100 22 14 6 38 24
53 40 l29 30 125 1 125 2 -7 -23z"/>
<path d="M5210 1350 c-8 -5 -29 -9 -45 -8 -17 1 -40 -4 -52 -10 -12 -7 -34
-12 -50 -12 -15 0 -60 -11 -98 -25 -78 -29 -323 -80 -430 -90 -38 -4 -75 -11
-81 -16 -6 -5 -29 -11 -50 -14 -21 -2 -68 -9 -104 -14 -36 -6 -92 -11 -124
-11 -41 0 -62 -5 -70 -15 -7 -10 -32 -17 -73 -19 -34 -2 -71 -11 -84 -19 -22
-16 -21 -16 17 -11 21 2 62 9 89 14 28 6 151 26 275 45 124 20 234 38 245 41
11 2 58 11 105 19 47 9 105 20 130 25 25 6 88 19 140 30 118 24 261 59 277 68
7 4 9 13 5 19 -5 8 -13 9 -22 3z"/>
<path d="M3779 1076 c-2 -2 -42 -9 -89 -15 -187 -23 -247 -30 -304 -36 -74 -7
-109 -24 -50 -25 22 0 65 4 95 9 30 5 132 20 227 32 94 13 172 27 172 31 0 8
-43 11 -51 4z"/>
<path d="M3218 1003 c-31 -5 -39 -23 -10 -23 9 1 31 7 47 15 31 14 20 17 -37
8z"/>
<path d="M3102 988 c-24 -5 -42 -12 -39 -14 8 -8 107 8 107 17 0 11 -10 10
-68 -3z"/>
<path d="M2890 970 c0 -6 7 -10 15 -10 8 0 15 2 15 4 0 2 -7 6 -15 10 -8 3
-15 1 -15 -4z"/>
<path d="M2944 968 c-3 -5 15 -8 40 -8 25 0 46 3 46 8 0 4 -18 7 -41 7 -22 0
-43 -3 -45 -7z"/>
<path d="M2787 963 c-1 0 -42 -4 -92 -8 -49 -4 -93 -9 -96 -11 -4 -2 -45 -4
-91 -5 -47 -1 -91 -5 -99 -10 -19 -12 9 -11 251 6 113 8 209 15 214 15 5 0 6
3 2 8 -6 6 -84 11 -89 5z"/>
<path d="M2245 926 c-49 -4 -155 -9 -235 -11 -155 -2 -311 -12 -319 -20 -3 -4
39 -9 60 -7 3 0 129 6 280 13 278 12 378 21 329 30 -14 2 -65 0 -115 -5z"/>
<path d="M1178 919 c-8 -6 3 -9 32 -10 25 -1 92 -4 148 -8 57 -3 106 -3 109 2
6 11 71 9 78 -3 7 -12 135 -14 135 -2 0 4 -20 12 -45 18 -25 6 -45 7 -45 2 0
-4 -7 -8 -15 -8 -8 0 -15 5 -15 10 0 6 -20 10 -45 10 -25 0 -45 -4 -45 -9 0
-6 -11 -6 -29 0 -21 7 -36 7 -50 0 -13 -7 -22 -8 -26 -1 -7 12 -167 11 -187
-1z"/>
</g>
</svg>
